<?xml version="1.0" encoding="UTF-8" standalone="no"?>
<!DOCTYPE svg PUBLIC "-//W3C//DTD SVG 1.1//EN" "http://www.w3.org/Graphics/SVG/1.1/DTD/svg11.dtd">
<!-- Generated by Microsoft Visio, SVG Export Background.svg Page-1 -->
<svg xmlns="http://www.w3.org/2000/svg" xmlns:xlink="http://www.w3.org/1999/xlink" xmlns:ev="http://www.w3.org/2001/xml-events"
		xmlns:v="http://schemas.microsoft.com/visio/2003/SVGExtensions/" width="11.0104in" height="8.51042in"
		viewBox="0 0 792.75 612.75" xml:space="preserve" color-interpolation-filters="sRGB" class="st6">
	<v:documentProperties v:langID="1033" v:viewMarkup="false"/>

	<style type="text/css">
	<![CDATA[
		.st1 {fill:url(#grad0-5);stroke:none;stroke-linecap:round;stroke-linejoin:round;stroke-width:0.75}
		.st2 {fill:url(#grad0-9);stroke:none;stroke-linecap:round;stroke-linejoin:round;stroke-width:0.75}
		.st3 {fill:url(#grad0-13);stroke:none;stroke-linecap:round;stroke-linejoin:round;stroke-width:0.75}
		.st4 {stroke:#ffffff;stroke-linecap:round;stroke-linejoin:round;stroke-opacity:0.6;stroke-width:0.75}
		.st5 {stroke:#ffffff;stroke-linecap:round;stroke-linejoin:round;stroke-opacity:0.5;stroke-width:0.75}
		.st6 {fill:none;fill-rule:evenodd;font-size:12px;overflow:visible;stroke-linecap:square;stroke-miterlimit:3}
	]]>
	</style>

	<defs id="Patterns_And_Gradients">
		<linearGradient id="grad0-5" x1="0" y1="0" x2="1" y2="0" gradientTransform="rotate(90 0.5 0.5)">
			<stop offset="0" stop-color="#bfbfbf" stop-opacity="1"/>
			<stop offset="1" stop-color="#ffffff" stop-opacity="1"/>
		</linearGradient>
		<linearGradient id="grad0-9" x1="0" y1="0" x2="1" y2="0" gradientTransform="rotate(90 0.5 0.5)">
			<stop offset="0" stop-color="#f4f4f4" stop-opacity="0.75"/>
			<stop offset="1" stop-color="#afafaf" stop-opacity="0.5"/>
		</linearGradient>
		<linearGradient id="grad0-13" x1="0" y1="0" x2="1" y2="0" gradientTransform="rotate(90 0.5 0.5)">
			<stop offset="0" stop-color="#0083b9" stop-opacity="0.75"/>
			<stop offset="1" stop-color="#24bdff" stop-opacity="0.7"/>
		</linearGradient>
	</defs>
	<g v:mID="0" v:index="1" v:groupContext="foregroundPage">
		<title>Page-1</title>
		<v:pageProperties v:drawingScale="1" v:pageScale="1" v:drawingUnits="0" v:shadowOffsetX="9" v:shadowOffsetY="-9"/>
		<g id="group1000-1" v:mID="1000" v:groupContext="group">
			<v:userDefs>
				<v:ud v:nameU="Background" v:prompt="" v:val="VT0(0):26"/>
				<v:ud v:nameU="visVersion" v:prompt="" v:val="VT0(15):26"/>
				<v:ud v:nameU="msvShapeCategories" v:prompt="" v:val="VT4(DoNotContain)"/>
				<v:ud v:nameU="msvVisioCreated" v:prompt="" v:val="VT0(0):26"/>
			</v:userDefs>
			<title>Flow.1000</title>
			<g id="shape1001-2" v:mID="1001" v:groupContext="shape">
				<title>Sheet.1001</title>
				<v:userDefs>
					<v:ud v:nameU="Background" v:val="VT0(0):26"/>
					<v:ud v:nameU="visVersion" v:val="VT0(15):26"/>
				</v:userDefs>
				<path d="M0 612.75 L792.75 612.75 L792.75 0 L513.49 0 L0 0 L0 612.75 Z" class="st1"/>
			</g>
			<g id="shape1002-6" v:mID="1002" v:groupContext="shape" transform="translate(368.974,-536.561)">
				<title>Sheet.1002</title>
				<path d="M0 537.31 A395.173 374.942 -4.22 0 0 422.84 568.85 L422.84 537.31 L0 537.31 Z" class="st2"/>
			</g>
			<g id="shape1003-10" v:mID="1003" v:groupContext="shape" transform="translate(0,-513.629)">
				<title>Sheet.1003</title>
				<path d="M792.75 556.43 L792.75 538.41 A529.199 529.347 0 0 1 560.78 578.96 A392.522 392.631 0 0 1 351.33 513.63
							 L0 513.63 L0 612.75 A494.803 407.52 0 0 1 432.41 567.49 A408.879 336.753 -180 0 0 513.49 586.04 A462.9
							 381.244 -180 0 0 792.75 556.43 Z" class="st3"/>
			</g>
			<g id="shape1004-14" v:mID="1004" v:groupContext="shape" transform="translate(-51.0332,-457.007) rotate(-6.16148)">
				<title>Sheet.1004</title>
				<path d="M-0 564.56 A748.787 557.246 1.52 0 1 495.57 595.98 A292.604 219.627 -11.37 0 0 675.57 605.74 A76.8529 18.4297
							 -16.6 0 0 773.18 564.55" class="st4"/>
			</g>
			<g id="shape1005-17" v:mID="1005" v:groupContext="shape" transform="translate(-51.8586,-463.916) rotate(-6.16148)">
				<title>Sheet.1005</title>
				<path d="M-0 565.54 A875.558 746.97 -180 0 1 408.43 586.28 A460.298 392.665 -0.29 0 0 648.78 607.61 A335.217 285.969
							 -0.25 0 0 773.75 565.54" class="st5"/>
			</g>
		</g>
	</g>
</svg>
